%TF.GenerationSoftware,KiCad,Pcbnew,9.0.2*%
%TF.CreationDate,2025-07-10T19:44:48-04:00*%
%TF.ProjectId,AAPad_pcb,41415061-645f-4706-9362-2e6b69636164,rev?*%
%TF.SameCoordinates,Original*%
%TF.FileFunction,Soldermask,Bot*%
%TF.FilePolarity,Negative*%
%FSLAX46Y46*%
G04 Gerber Fmt 4.6, Leading zero omitted, Abs format (unit mm)*
G04 Created by KiCad (PCBNEW 9.0.2) date 2025-07-10 19:44:48*
%MOMM*%
%LPD*%
G01*
G04 APERTURE LIST*
G04 Aperture macros list*
%AMRoundRect*
0 Rectangle with rounded corners*
0 $1 Rounding radius*
0 $2 $3 $4 $5 $6 $7 $8 $9 X,Y pos of 4 corners*
0 Add a 4 corners polygon primitive as box body*
4,1,4,$2,$3,$4,$5,$6,$7,$8,$9,$2,$3,0*
0 Add four circle primitives for the rounded corners*
1,1,$1+$1,$2,$3*
1,1,$1+$1,$4,$5*
1,1,$1+$1,$6,$7*
1,1,$1+$1,$8,$9*
0 Add four rect primitives between the rounded corners*
20,1,$1+$1,$2,$3,$4,$5,0*
20,1,$1+$1,$4,$5,$6,$7,0*
20,1,$1+$1,$6,$7,$8,$9,0*
20,1,$1+$1,$8,$9,$2,$3,0*%
G04 Aperture macros list end*
%ADD10C,3.200000*%
%ADD11RoundRect,0.250000X-0.550000X-0.550000X0.550000X-0.550000X0.550000X0.550000X-0.550000X0.550000X0*%
%ADD12C,1.600000*%
%ADD13C,1.700000*%
%ADD14C,4.000000*%
%ADD15C,2.200000*%
%ADD16R,1.700000X1.700000*%
%ADD17O,1.700000X1.700000*%
%ADD18C,1.524000*%
%ADD19R,2.000000X2.000000*%
%ADD20C,2.000000*%
%ADD21R,3.200000X2.000000*%
%ADD22R,1.450000X0.820000*%
%ADD23RoundRect,0.205000X0.520000X0.205000X-0.520000X0.205000X-0.520000X-0.205000X0.520000X-0.205000X0*%
%ADD24R,0.820000X1.450000*%
%ADD25RoundRect,0.205000X0.205000X-0.520000X0.205000X0.520000X-0.205000X0.520000X-0.205000X-0.520000X0*%
G04 APERTURE END LIST*
D10*
%TO.C,REF\u002A\u002A*%
X138552836Y-40150997D03*
%TD*%
%TO.C,REF\u002A\u002A*%
X61022763Y-112685612D03*
%TD*%
D11*
%TO.C,D8*%
X72390000Y-108325000D03*
D12*
X80010000Y-108325000D03*
%TD*%
D13*
%TO.C,SW2*%
X106838800Y-66675000D03*
D14*
X111918800Y-66675000D03*
D13*
X116998800Y-66675000D03*
D15*
X114458800Y-61595000D03*
X108108800Y-64135000D03*
%TD*%
D11*
%TO.C,D1*%
X72390000Y-83475000D03*
D12*
X80010000Y-83475000D03*
%TD*%
D11*
%TO.C,D5*%
X72390000Y-97675000D03*
D12*
X80010000Y-97675000D03*
%TD*%
D11*
%TO.C,D3*%
X72390000Y-90575000D03*
D12*
X80010000Y-90575000D03*
%TD*%
D11*
%TO.C,D6*%
X72390000Y-101225000D03*
D12*
X80010000Y-101225000D03*
%TD*%
D13*
%TO.C,SW3*%
X125888800Y-66675000D03*
D14*
X130968800Y-66675000D03*
D13*
X136048800Y-66675000D03*
D15*
X133508800Y-61595000D03*
X127158800Y-64135000D03*
%TD*%
D13*
%TO.C,SW7*%
X87788800Y-104775000D03*
D14*
X92868800Y-104775000D03*
D13*
X97948800Y-104775000D03*
D15*
X95408800Y-99695000D03*
X89058800Y-102235000D03*
%TD*%
D13*
%TO.C,SW4*%
X125888800Y-85725000D03*
D14*
X130968800Y-85725000D03*
D13*
X136048800Y-85725000D03*
D15*
X133508800Y-80645000D03*
X127158800Y-83185000D03*
%TD*%
D11*
%TO.C,D9*%
X72390000Y-111875000D03*
D12*
X80010000Y-111875000D03*
%TD*%
D11*
%TO.C,D2*%
X72390000Y-87025000D03*
D12*
X80010000Y-87025000D03*
%TD*%
D11*
%TO.C,D4*%
X72390000Y-94125000D03*
D12*
X80010000Y-94125000D03*
%TD*%
D16*
%TO.C,J1*%
X120008800Y-43930000D03*
D17*
X120008800Y-46470000D03*
X120008800Y-49010000D03*
X120008800Y-51550000D03*
%TD*%
D18*
%TO.C,U1*%
X61252800Y-38629500D03*
X61252800Y-41169500D03*
X61252800Y-43709500D03*
X61252800Y-46249500D03*
X61252800Y-48789500D03*
X61252800Y-51329500D03*
X61252800Y-53869500D03*
X76492800Y-53869500D03*
X76492800Y-51329500D03*
X76492800Y-48789500D03*
X76492800Y-46249500D03*
X76492800Y-43709500D03*
X76492800Y-41169500D03*
X76492800Y-38629500D03*
%TD*%
D13*
%TO.C,SW1*%
X87788800Y-66675000D03*
D14*
X92868800Y-66675000D03*
D13*
X97948800Y-66675000D03*
D15*
X95408800Y-61595000D03*
X89058800Y-64135000D03*
%TD*%
D13*
%TO.C,SW6*%
X106838800Y-104775000D03*
D14*
X111918800Y-104775000D03*
D13*
X116998800Y-104775000D03*
D15*
X114458800Y-99695000D03*
X108108800Y-102235000D03*
%TD*%
D19*
%TO.C,SW11*%
X104668800Y-83225000D03*
D20*
X104668800Y-88225000D03*
X104668800Y-85725000D03*
D21*
X112168800Y-80125000D03*
X112168800Y-91325000D03*
D20*
X119168800Y-88225000D03*
X119168800Y-83225000D03*
%TD*%
D11*
%TO.C,D7*%
X72390000Y-104775000D03*
D12*
X80010000Y-104775000D03*
%TD*%
D13*
%TO.C,SW8*%
X87788800Y-85725000D03*
D14*
X92868800Y-85725000D03*
D13*
X97948800Y-85725000D03*
D15*
X95408800Y-80645000D03*
X89058800Y-83185000D03*
%TD*%
D13*
%TO.C,SW5*%
X125888800Y-104775000D03*
D14*
X130968800Y-104775000D03*
D13*
X136048800Y-104775000D03*
D15*
X133508800Y-99695000D03*
X127158800Y-102235000D03*
%TD*%
D22*
%TO.C,D12*%
X114311200Y-75165100D03*
X114311200Y-73665100D03*
D23*
X108961200Y-73665100D03*
D22*
X108961200Y-75165100D03*
%TD*%
D24*
%TO.C,D10*%
X130218800Y-50300000D03*
X131718800Y-50300000D03*
D25*
X131718800Y-44950000D03*
D24*
X130218800Y-44950000D03*
%TD*%
D22*
%TO.C,D14*%
X133772900Y-94057700D03*
X133772900Y-92557700D03*
D23*
X128422900Y-92557700D03*
D22*
X128422900Y-94057700D03*
%TD*%
%TO.C,D15*%
X95104800Y-94070900D03*
X95104800Y-92570900D03*
D23*
X89754800Y-92570900D03*
D22*
X89754800Y-94070900D03*
%TD*%
%TO.C,D13*%
X95259000Y-75187400D03*
X95259000Y-73687400D03*
D23*
X89909000Y-73687400D03*
D22*
X89909000Y-75187400D03*
%TD*%
%TO.C,D17*%
X114250300Y-112956400D03*
X114250300Y-111456400D03*
D23*
X108900300Y-111456400D03*
D22*
X108900300Y-112956400D03*
%TD*%
%TO.C,D16*%
X133665300Y-113060500D03*
X133665300Y-111560500D03*
D23*
X128315300Y-111560500D03*
D22*
X128315300Y-113060500D03*
%TD*%
%TO.C,D18*%
X95169300Y-113254300D03*
X95169300Y-111754300D03*
D23*
X89819300Y-111754300D03*
D22*
X89819300Y-113254300D03*
%TD*%
%TO.C,D11*%
X133734100Y-75223900D03*
X133734100Y-73723900D03*
D23*
X128384100Y-73723900D03*
D22*
X128384100Y-75223900D03*
%TD*%
M02*
