%TF.GenerationSoftware,KiCad,Pcbnew,9.0.2*%
%TF.CreationDate,2025-07-10T19:44:47-04:00*%
%TF.ProjectId,AAPad_pcb,41415061-645f-4706-9362-2e6b69636164,rev?*%
%TF.SameCoordinates,Original*%
%TF.FileFunction,Legend,Bot*%
%TF.FilePolarity,Positive*%
%FSLAX46Y46*%
G04 Gerber Fmt 4.6, Leading zero omitted, Abs format (unit mm)*
G04 Created by KiCad (PCBNEW 9.0.2) date 2025-07-10 19:44:47*
%MOMM*%
%LPD*%
G01*
G04 APERTURE LIST*
%ADD10C,0.150000*%
%ADD11C,0.100000*%
%ADD12C,0.120000*%
G04 APERTURE END LIST*
D10*
X112486200Y-76831133D02*
X112486200Y-76131133D01*
X112486200Y-76131133D02*
X112319533Y-76131133D01*
X112319533Y-76131133D02*
X112219533Y-76164466D01*
X112219533Y-76164466D02*
X112152867Y-76231133D01*
X112152867Y-76231133D02*
X112119533Y-76297800D01*
X112119533Y-76297800D02*
X112086200Y-76431133D01*
X112086200Y-76431133D02*
X112086200Y-76531133D01*
X112086200Y-76531133D02*
X112119533Y-76664466D01*
X112119533Y-76664466D02*
X112152867Y-76731133D01*
X112152867Y-76731133D02*
X112219533Y-76797800D01*
X112219533Y-76797800D02*
X112319533Y-76831133D01*
X112319533Y-76831133D02*
X112486200Y-76831133D01*
X111419533Y-76831133D02*
X111819533Y-76831133D01*
X111619533Y-76831133D02*
X111619533Y-76131133D01*
X111619533Y-76131133D02*
X111686200Y-76231133D01*
X111686200Y-76231133D02*
X111752867Y-76297800D01*
X111752867Y-76297800D02*
X111819533Y-76331133D01*
X111152866Y-76197800D02*
X111119533Y-76164466D01*
X111119533Y-76164466D02*
X111052866Y-76131133D01*
X111052866Y-76131133D02*
X110886200Y-76131133D01*
X110886200Y-76131133D02*
X110819533Y-76164466D01*
X110819533Y-76164466D02*
X110786200Y-76197800D01*
X110786200Y-76197800D02*
X110752866Y-76264466D01*
X110752866Y-76264466D02*
X110752866Y-76331133D01*
X110752866Y-76331133D02*
X110786200Y-76431133D01*
X110786200Y-76431133D02*
X111186200Y-76831133D01*
X111186200Y-76831133D02*
X110752866Y-76831133D01*
X128552766Y-48475000D02*
X129252766Y-48475000D01*
X129252766Y-48475000D02*
X129252766Y-48308333D01*
X129252766Y-48308333D02*
X129219433Y-48208333D01*
X129219433Y-48208333D02*
X129152766Y-48141667D01*
X129152766Y-48141667D02*
X129086100Y-48108333D01*
X129086100Y-48108333D02*
X128952766Y-48075000D01*
X128952766Y-48075000D02*
X128852766Y-48075000D01*
X128852766Y-48075000D02*
X128719433Y-48108333D01*
X128719433Y-48108333D02*
X128652766Y-48141667D01*
X128652766Y-48141667D02*
X128586100Y-48208333D01*
X128586100Y-48208333D02*
X128552766Y-48308333D01*
X128552766Y-48308333D02*
X128552766Y-48475000D01*
X128552766Y-47408333D02*
X128552766Y-47808333D01*
X128552766Y-47608333D02*
X129252766Y-47608333D01*
X129252766Y-47608333D02*
X129152766Y-47675000D01*
X129152766Y-47675000D02*
X129086100Y-47741667D01*
X129086100Y-47741667D02*
X129052766Y-47808333D01*
X129252766Y-46975000D02*
X129252766Y-46908333D01*
X129252766Y-46908333D02*
X129219433Y-46841666D01*
X129219433Y-46841666D02*
X129186100Y-46808333D01*
X129186100Y-46808333D02*
X129119433Y-46775000D01*
X129119433Y-46775000D02*
X128986100Y-46741666D01*
X128986100Y-46741666D02*
X128819433Y-46741666D01*
X128819433Y-46741666D02*
X128686100Y-46775000D01*
X128686100Y-46775000D02*
X128619433Y-46808333D01*
X128619433Y-46808333D02*
X128586100Y-46841666D01*
X128586100Y-46841666D02*
X128552766Y-46908333D01*
X128552766Y-46908333D02*
X128552766Y-46975000D01*
X128552766Y-46975000D02*
X128586100Y-47041666D01*
X128586100Y-47041666D02*
X128619433Y-47075000D01*
X128619433Y-47075000D02*
X128686100Y-47108333D01*
X128686100Y-47108333D02*
X128819433Y-47141666D01*
X128819433Y-47141666D02*
X128986100Y-47141666D01*
X128986100Y-47141666D02*
X129119433Y-47108333D01*
X129119433Y-47108333D02*
X129186100Y-47075000D01*
X129186100Y-47075000D02*
X129219433Y-47041666D01*
X129219433Y-47041666D02*
X129252766Y-46975000D01*
X131947900Y-95723733D02*
X131947900Y-95023733D01*
X131947900Y-95023733D02*
X131781233Y-95023733D01*
X131781233Y-95023733D02*
X131681233Y-95057066D01*
X131681233Y-95057066D02*
X131614567Y-95123733D01*
X131614567Y-95123733D02*
X131581233Y-95190400D01*
X131581233Y-95190400D02*
X131547900Y-95323733D01*
X131547900Y-95323733D02*
X131547900Y-95423733D01*
X131547900Y-95423733D02*
X131581233Y-95557066D01*
X131581233Y-95557066D02*
X131614567Y-95623733D01*
X131614567Y-95623733D02*
X131681233Y-95690400D01*
X131681233Y-95690400D02*
X131781233Y-95723733D01*
X131781233Y-95723733D02*
X131947900Y-95723733D01*
X130881233Y-95723733D02*
X131281233Y-95723733D01*
X131081233Y-95723733D02*
X131081233Y-95023733D01*
X131081233Y-95023733D02*
X131147900Y-95123733D01*
X131147900Y-95123733D02*
X131214567Y-95190400D01*
X131214567Y-95190400D02*
X131281233Y-95223733D01*
X130281233Y-95257066D02*
X130281233Y-95723733D01*
X130447900Y-94990400D02*
X130614566Y-95490400D01*
X130614566Y-95490400D02*
X130181233Y-95490400D01*
X93279800Y-95736933D02*
X93279800Y-95036933D01*
X93279800Y-95036933D02*
X93113133Y-95036933D01*
X93113133Y-95036933D02*
X93013133Y-95070266D01*
X93013133Y-95070266D02*
X92946467Y-95136933D01*
X92946467Y-95136933D02*
X92913133Y-95203600D01*
X92913133Y-95203600D02*
X92879800Y-95336933D01*
X92879800Y-95336933D02*
X92879800Y-95436933D01*
X92879800Y-95436933D02*
X92913133Y-95570266D01*
X92913133Y-95570266D02*
X92946467Y-95636933D01*
X92946467Y-95636933D02*
X93013133Y-95703600D01*
X93013133Y-95703600D02*
X93113133Y-95736933D01*
X93113133Y-95736933D02*
X93279800Y-95736933D01*
X92213133Y-95736933D02*
X92613133Y-95736933D01*
X92413133Y-95736933D02*
X92413133Y-95036933D01*
X92413133Y-95036933D02*
X92479800Y-95136933D01*
X92479800Y-95136933D02*
X92546467Y-95203600D01*
X92546467Y-95203600D02*
X92613133Y-95236933D01*
X91579800Y-95036933D02*
X91913133Y-95036933D01*
X91913133Y-95036933D02*
X91946466Y-95370266D01*
X91946466Y-95370266D02*
X91913133Y-95336933D01*
X91913133Y-95336933D02*
X91846466Y-95303600D01*
X91846466Y-95303600D02*
X91679800Y-95303600D01*
X91679800Y-95303600D02*
X91613133Y-95336933D01*
X91613133Y-95336933D02*
X91579800Y-95370266D01*
X91579800Y-95370266D02*
X91546466Y-95436933D01*
X91546466Y-95436933D02*
X91546466Y-95603600D01*
X91546466Y-95603600D02*
X91579800Y-95670266D01*
X91579800Y-95670266D02*
X91613133Y-95703600D01*
X91613133Y-95703600D02*
X91679800Y-95736933D01*
X91679800Y-95736933D02*
X91846466Y-95736933D01*
X91846466Y-95736933D02*
X91913133Y-95703600D01*
X91913133Y-95703600D02*
X91946466Y-95670266D01*
X93434000Y-76853433D02*
X93434000Y-76153433D01*
X93434000Y-76153433D02*
X93267333Y-76153433D01*
X93267333Y-76153433D02*
X93167333Y-76186766D01*
X93167333Y-76186766D02*
X93100667Y-76253433D01*
X93100667Y-76253433D02*
X93067333Y-76320100D01*
X93067333Y-76320100D02*
X93034000Y-76453433D01*
X93034000Y-76453433D02*
X93034000Y-76553433D01*
X93034000Y-76553433D02*
X93067333Y-76686766D01*
X93067333Y-76686766D02*
X93100667Y-76753433D01*
X93100667Y-76753433D02*
X93167333Y-76820100D01*
X93167333Y-76820100D02*
X93267333Y-76853433D01*
X93267333Y-76853433D02*
X93434000Y-76853433D01*
X92367333Y-76853433D02*
X92767333Y-76853433D01*
X92567333Y-76853433D02*
X92567333Y-76153433D01*
X92567333Y-76153433D02*
X92634000Y-76253433D01*
X92634000Y-76253433D02*
X92700667Y-76320100D01*
X92700667Y-76320100D02*
X92767333Y-76353433D01*
X92134000Y-76153433D02*
X91700666Y-76153433D01*
X91700666Y-76153433D02*
X91934000Y-76420100D01*
X91934000Y-76420100D02*
X91834000Y-76420100D01*
X91834000Y-76420100D02*
X91767333Y-76453433D01*
X91767333Y-76453433D02*
X91734000Y-76486766D01*
X91734000Y-76486766D02*
X91700666Y-76553433D01*
X91700666Y-76553433D02*
X91700666Y-76720100D01*
X91700666Y-76720100D02*
X91734000Y-76786766D01*
X91734000Y-76786766D02*
X91767333Y-76820100D01*
X91767333Y-76820100D02*
X91834000Y-76853433D01*
X91834000Y-76853433D02*
X92034000Y-76853433D01*
X92034000Y-76853433D02*
X92100666Y-76820100D01*
X92100666Y-76820100D02*
X92134000Y-76786766D01*
X112425300Y-114622433D02*
X112425300Y-113922433D01*
X112425300Y-113922433D02*
X112258633Y-113922433D01*
X112258633Y-113922433D02*
X112158633Y-113955766D01*
X112158633Y-113955766D02*
X112091967Y-114022433D01*
X112091967Y-114022433D02*
X112058633Y-114089100D01*
X112058633Y-114089100D02*
X112025300Y-114222433D01*
X112025300Y-114222433D02*
X112025300Y-114322433D01*
X112025300Y-114322433D02*
X112058633Y-114455766D01*
X112058633Y-114455766D02*
X112091967Y-114522433D01*
X112091967Y-114522433D02*
X112158633Y-114589100D01*
X112158633Y-114589100D02*
X112258633Y-114622433D01*
X112258633Y-114622433D02*
X112425300Y-114622433D01*
X111358633Y-114622433D02*
X111758633Y-114622433D01*
X111558633Y-114622433D02*
X111558633Y-113922433D01*
X111558633Y-113922433D02*
X111625300Y-114022433D01*
X111625300Y-114022433D02*
X111691967Y-114089100D01*
X111691967Y-114089100D02*
X111758633Y-114122433D01*
X111125300Y-113922433D02*
X110658633Y-113922433D01*
X110658633Y-113922433D02*
X110958633Y-114622433D01*
X131840300Y-114726533D02*
X131840300Y-114026533D01*
X131840300Y-114026533D02*
X131673633Y-114026533D01*
X131673633Y-114026533D02*
X131573633Y-114059866D01*
X131573633Y-114059866D02*
X131506967Y-114126533D01*
X131506967Y-114126533D02*
X131473633Y-114193200D01*
X131473633Y-114193200D02*
X131440300Y-114326533D01*
X131440300Y-114326533D02*
X131440300Y-114426533D01*
X131440300Y-114426533D02*
X131473633Y-114559866D01*
X131473633Y-114559866D02*
X131506967Y-114626533D01*
X131506967Y-114626533D02*
X131573633Y-114693200D01*
X131573633Y-114693200D02*
X131673633Y-114726533D01*
X131673633Y-114726533D02*
X131840300Y-114726533D01*
X130773633Y-114726533D02*
X131173633Y-114726533D01*
X130973633Y-114726533D02*
X130973633Y-114026533D01*
X130973633Y-114026533D02*
X131040300Y-114126533D01*
X131040300Y-114126533D02*
X131106967Y-114193200D01*
X131106967Y-114193200D02*
X131173633Y-114226533D01*
X130173633Y-114026533D02*
X130306966Y-114026533D01*
X130306966Y-114026533D02*
X130373633Y-114059866D01*
X130373633Y-114059866D02*
X130406966Y-114093200D01*
X130406966Y-114093200D02*
X130473633Y-114193200D01*
X130473633Y-114193200D02*
X130506966Y-114326533D01*
X130506966Y-114326533D02*
X130506966Y-114593200D01*
X130506966Y-114593200D02*
X130473633Y-114659866D01*
X130473633Y-114659866D02*
X130440300Y-114693200D01*
X130440300Y-114693200D02*
X130373633Y-114726533D01*
X130373633Y-114726533D02*
X130240300Y-114726533D01*
X130240300Y-114726533D02*
X130173633Y-114693200D01*
X130173633Y-114693200D02*
X130140300Y-114659866D01*
X130140300Y-114659866D02*
X130106966Y-114593200D01*
X130106966Y-114593200D02*
X130106966Y-114426533D01*
X130106966Y-114426533D02*
X130140300Y-114359866D01*
X130140300Y-114359866D02*
X130173633Y-114326533D01*
X130173633Y-114326533D02*
X130240300Y-114293200D01*
X130240300Y-114293200D02*
X130373633Y-114293200D01*
X130373633Y-114293200D02*
X130440300Y-114326533D01*
X130440300Y-114326533D02*
X130473633Y-114359866D01*
X130473633Y-114359866D02*
X130506966Y-114426533D01*
X93344300Y-114920333D02*
X93344300Y-114220333D01*
X93344300Y-114220333D02*
X93177633Y-114220333D01*
X93177633Y-114220333D02*
X93077633Y-114253666D01*
X93077633Y-114253666D02*
X93010967Y-114320333D01*
X93010967Y-114320333D02*
X92977633Y-114387000D01*
X92977633Y-114387000D02*
X92944300Y-114520333D01*
X92944300Y-114520333D02*
X92944300Y-114620333D01*
X92944300Y-114620333D02*
X92977633Y-114753666D01*
X92977633Y-114753666D02*
X93010967Y-114820333D01*
X93010967Y-114820333D02*
X93077633Y-114887000D01*
X93077633Y-114887000D02*
X93177633Y-114920333D01*
X93177633Y-114920333D02*
X93344300Y-114920333D01*
X92277633Y-114920333D02*
X92677633Y-114920333D01*
X92477633Y-114920333D02*
X92477633Y-114220333D01*
X92477633Y-114220333D02*
X92544300Y-114320333D01*
X92544300Y-114320333D02*
X92610967Y-114387000D01*
X92610967Y-114387000D02*
X92677633Y-114420333D01*
X91877633Y-114520333D02*
X91944300Y-114487000D01*
X91944300Y-114487000D02*
X91977633Y-114453666D01*
X91977633Y-114453666D02*
X92010966Y-114387000D01*
X92010966Y-114387000D02*
X92010966Y-114353666D01*
X92010966Y-114353666D02*
X91977633Y-114287000D01*
X91977633Y-114287000D02*
X91944300Y-114253666D01*
X91944300Y-114253666D02*
X91877633Y-114220333D01*
X91877633Y-114220333D02*
X91744300Y-114220333D01*
X91744300Y-114220333D02*
X91677633Y-114253666D01*
X91677633Y-114253666D02*
X91644300Y-114287000D01*
X91644300Y-114287000D02*
X91610966Y-114353666D01*
X91610966Y-114353666D02*
X91610966Y-114387000D01*
X91610966Y-114387000D02*
X91644300Y-114453666D01*
X91644300Y-114453666D02*
X91677633Y-114487000D01*
X91677633Y-114487000D02*
X91744300Y-114520333D01*
X91744300Y-114520333D02*
X91877633Y-114520333D01*
X91877633Y-114520333D02*
X91944300Y-114553666D01*
X91944300Y-114553666D02*
X91977633Y-114587000D01*
X91977633Y-114587000D02*
X92010966Y-114653666D01*
X92010966Y-114653666D02*
X92010966Y-114787000D01*
X92010966Y-114787000D02*
X91977633Y-114853666D01*
X91977633Y-114853666D02*
X91944300Y-114887000D01*
X91944300Y-114887000D02*
X91877633Y-114920333D01*
X91877633Y-114920333D02*
X91744300Y-114920333D01*
X91744300Y-114920333D02*
X91677633Y-114887000D01*
X91677633Y-114887000D02*
X91644300Y-114853666D01*
X91644300Y-114853666D02*
X91610966Y-114787000D01*
X91610966Y-114787000D02*
X91610966Y-114653666D01*
X91610966Y-114653666D02*
X91644300Y-114587000D01*
X91644300Y-114587000D02*
X91677633Y-114553666D01*
X91677633Y-114553666D02*
X91744300Y-114520333D01*
X131909100Y-76889933D02*
X131909100Y-76189933D01*
X131909100Y-76189933D02*
X131742433Y-76189933D01*
X131742433Y-76189933D02*
X131642433Y-76223266D01*
X131642433Y-76223266D02*
X131575767Y-76289933D01*
X131575767Y-76289933D02*
X131542433Y-76356600D01*
X131542433Y-76356600D02*
X131509100Y-76489933D01*
X131509100Y-76489933D02*
X131509100Y-76589933D01*
X131509100Y-76589933D02*
X131542433Y-76723266D01*
X131542433Y-76723266D02*
X131575767Y-76789933D01*
X131575767Y-76789933D02*
X131642433Y-76856600D01*
X131642433Y-76856600D02*
X131742433Y-76889933D01*
X131742433Y-76889933D02*
X131909100Y-76889933D01*
X130842433Y-76889933D02*
X131242433Y-76889933D01*
X131042433Y-76889933D02*
X131042433Y-76189933D01*
X131042433Y-76189933D02*
X131109100Y-76289933D01*
X131109100Y-76289933D02*
X131175767Y-76356600D01*
X131175767Y-76356600D02*
X131242433Y-76389933D01*
X130175766Y-76889933D02*
X130575766Y-76889933D01*
X130375766Y-76889933D02*
X130375766Y-76189933D01*
X130375766Y-76189933D02*
X130442433Y-76289933D01*
X130442433Y-76289933D02*
X130509100Y-76356600D01*
X130509100Y-76356600D02*
X130575766Y-76389933D01*
D11*
%TO.C,D12*%
X109436200Y-73015100D02*
X108836200Y-73015100D01*
X109436200Y-72415100D01*
X109436200Y-73015100D01*
G36*
X109436200Y-73015100D02*
G01*
X108836200Y-73015100D01*
X109436200Y-72415100D01*
X109436200Y-73015100D01*
G37*
D12*
X114496200Y-76193100D02*
X114016200Y-76193100D01*
X114256200Y-75863100D01*
X114496200Y-76193100D01*
G36*
X114496200Y-76193100D02*
G01*
X114016200Y-76193100D01*
X114256200Y-75863100D01*
X114496200Y-76193100D01*
G37*
D11*
%TO.C,D10*%
X132968800Y-45425000D02*
X132368800Y-45425000D01*
X132368800Y-44825000D01*
X132968800Y-45425000D01*
G36*
X132968800Y-45425000D02*
G01*
X132368800Y-45425000D01*
X132368800Y-44825000D01*
X132968800Y-45425000D01*
G37*
D12*
X129520800Y-50245000D02*
X129190800Y-50485000D01*
X129190800Y-50005000D01*
X129520800Y-50245000D01*
G36*
X129520800Y-50245000D02*
G01*
X129190800Y-50485000D01*
X129190800Y-50005000D01*
X129520800Y-50245000D01*
G37*
D11*
%TO.C,D14*%
X128897900Y-91907700D02*
X128297900Y-91907700D01*
X128897900Y-91307700D01*
X128897900Y-91907700D01*
G36*
X128897900Y-91907700D02*
G01*
X128297900Y-91907700D01*
X128897900Y-91307700D01*
X128897900Y-91907700D01*
G37*
D12*
X133957900Y-95085700D02*
X133477900Y-95085700D01*
X133717900Y-94755700D01*
X133957900Y-95085700D01*
G36*
X133957900Y-95085700D02*
G01*
X133477900Y-95085700D01*
X133717900Y-94755700D01*
X133957900Y-95085700D01*
G37*
D11*
%TO.C,D15*%
X90229800Y-91920900D02*
X89629800Y-91920900D01*
X90229800Y-91320900D01*
X90229800Y-91920900D01*
G36*
X90229800Y-91920900D02*
G01*
X89629800Y-91920900D01*
X90229800Y-91320900D01*
X90229800Y-91920900D01*
G37*
D12*
X95289800Y-95098900D02*
X94809800Y-95098900D01*
X95049800Y-94768900D01*
X95289800Y-95098900D01*
G36*
X95289800Y-95098900D02*
G01*
X94809800Y-95098900D01*
X95049800Y-94768900D01*
X95289800Y-95098900D01*
G37*
D11*
%TO.C,D13*%
X90384000Y-73037400D02*
X89784000Y-73037400D01*
X90384000Y-72437400D01*
X90384000Y-73037400D01*
G36*
X90384000Y-73037400D02*
G01*
X89784000Y-73037400D01*
X90384000Y-72437400D01*
X90384000Y-73037400D01*
G37*
D12*
X95444000Y-76215400D02*
X94964000Y-76215400D01*
X95204000Y-75885400D01*
X95444000Y-76215400D01*
G36*
X95444000Y-76215400D02*
G01*
X94964000Y-76215400D01*
X95204000Y-75885400D01*
X95444000Y-76215400D01*
G37*
D11*
%TO.C,D17*%
X109375300Y-110806400D02*
X108775300Y-110806400D01*
X109375300Y-110206400D01*
X109375300Y-110806400D01*
G36*
X109375300Y-110806400D02*
G01*
X108775300Y-110806400D01*
X109375300Y-110206400D01*
X109375300Y-110806400D01*
G37*
D12*
X114435300Y-113984400D02*
X113955300Y-113984400D01*
X114195300Y-113654400D01*
X114435300Y-113984400D01*
G36*
X114435300Y-113984400D02*
G01*
X113955300Y-113984400D01*
X114195300Y-113654400D01*
X114435300Y-113984400D01*
G37*
D11*
%TO.C,D16*%
X128790300Y-110910500D02*
X128190300Y-110910500D01*
X128790300Y-110310500D01*
X128790300Y-110910500D01*
G36*
X128790300Y-110910500D02*
G01*
X128190300Y-110910500D01*
X128790300Y-110310500D01*
X128790300Y-110910500D01*
G37*
D12*
X133850300Y-114088500D02*
X133370300Y-114088500D01*
X133610300Y-113758500D01*
X133850300Y-114088500D01*
G36*
X133850300Y-114088500D02*
G01*
X133370300Y-114088500D01*
X133610300Y-113758500D01*
X133850300Y-114088500D01*
G37*
D11*
%TO.C,D18*%
X90294300Y-111104300D02*
X89694300Y-111104300D01*
X90294300Y-110504300D01*
X90294300Y-111104300D01*
G36*
X90294300Y-111104300D02*
G01*
X89694300Y-111104300D01*
X90294300Y-110504300D01*
X90294300Y-111104300D01*
G37*
D12*
X95354300Y-114282300D02*
X94874300Y-114282300D01*
X95114300Y-113952300D01*
X95354300Y-114282300D01*
G36*
X95354300Y-114282300D02*
G01*
X94874300Y-114282300D01*
X95114300Y-113952300D01*
X95354300Y-114282300D01*
G37*
D11*
%TO.C,D11*%
X128859100Y-73073900D02*
X128259100Y-73073900D01*
X128859100Y-72473900D01*
X128859100Y-73073900D01*
G36*
X128859100Y-73073900D02*
G01*
X128259100Y-73073900D01*
X128859100Y-72473900D01*
X128859100Y-73073900D01*
G37*
D12*
X133919100Y-76251900D02*
X133439100Y-76251900D01*
X133679100Y-75921900D01*
X133919100Y-76251900D01*
G36*
X133919100Y-76251900D02*
G01*
X133439100Y-76251900D01*
X133679100Y-75921900D01*
X133919100Y-76251900D01*
G37*
%TD*%
M02*
