%TF.GenerationSoftware,KiCad,Pcbnew,9.0.2*%
%TF.CreationDate,2025-07-10T19:44:48-04:00*%
%TF.ProjectId,AAPad_pcb,41415061-645f-4706-9362-2e6b69636164,rev?*%
%TF.SameCoordinates,Original*%
%TF.FileFunction,Profile,NP*%
%FSLAX46Y46*%
G04 Gerber Fmt 4.6, Leading zero omitted, Abs format (unit mm)*
G04 Created by KiCad (PCBNEW 9.0.2) date 2025-07-10 19:44:48*
%MOMM*%
%LPD*%
G01*
G04 APERTURE LIST*
%TA.AperFunction,Profile*%
%ADD10C,0.050000*%
%TD*%
%TA.AperFunction,Profile*%
%ADD11C,0.120000*%
%TD*%
G04 APERTURE END LIST*
D10*
X57150000Y-35718750D02*
X142875000Y-35718750D01*
X142875000Y-116681250D01*
X57150000Y-116681250D01*
X57150000Y-35718750D01*
D11*
%TO.C,D12*%
X109736200Y-73115100D02*
X109736200Y-75715100D01*
X109936200Y-75915100D02*
X113336200Y-75915100D01*
X113336200Y-72915100D02*
X109936200Y-72915100D01*
X113536200Y-75715100D02*
X113536200Y-73115100D01*
X109736200Y-73115100D02*
G75*
G02*
X109936200Y-72915100I200000J0D01*
G01*
X109936200Y-75915100D02*
G75*
G02*
X109736200Y-75715100I0J200000D01*
G01*
X113336200Y-72915100D02*
G75*
G02*
X113536200Y-73115100I-1J-200001D01*
G01*
X113536200Y-75715100D02*
G75*
G02*
X113336200Y-75915100I-200001J1D01*
G01*
%TO.C,D10*%
X129468800Y-45925000D02*
X129468800Y-49325000D01*
X129668800Y-49525000D02*
X132268800Y-49525000D01*
X132268800Y-45725000D02*
X129668800Y-45725000D01*
X132468800Y-49325000D02*
X132468800Y-45925000D01*
X129468800Y-45925000D02*
G75*
G02*
X129668800Y-45725000I200000J0D01*
G01*
X129668800Y-49525000D02*
G75*
G02*
X129468800Y-49325000I1J200001D01*
G01*
X132268800Y-45725000D02*
G75*
G02*
X132468800Y-45925000I0J-200000D01*
G01*
X132468800Y-49325000D02*
G75*
G02*
X132268800Y-49525000I-200001J1D01*
G01*
%TO.C,D14*%
X129197900Y-92007700D02*
X129197900Y-94607700D01*
X129397900Y-94807700D02*
X132797900Y-94807700D01*
X132797900Y-91807700D02*
X129397900Y-91807700D01*
X132997900Y-94607700D02*
X132997900Y-92007700D01*
X129197900Y-92007700D02*
G75*
G02*
X129397900Y-91807700I200000J0D01*
G01*
X129397900Y-94807700D02*
G75*
G02*
X129197900Y-94607700I0J200000D01*
G01*
X132797900Y-91807700D02*
G75*
G02*
X132997900Y-92007700I-1J-200001D01*
G01*
X132997900Y-94607700D02*
G75*
G02*
X132797900Y-94807700I-200001J1D01*
G01*
%TO.C,D15*%
X90529800Y-92020900D02*
X90529800Y-94620900D01*
X90729800Y-94820900D02*
X94129800Y-94820900D01*
X94129800Y-91820900D02*
X90729800Y-91820900D01*
X94329800Y-94620900D02*
X94329800Y-92020900D01*
X90529800Y-92020900D02*
G75*
G02*
X90729800Y-91820900I200000J0D01*
G01*
X90729800Y-94820900D02*
G75*
G02*
X90529800Y-94620900I0J200000D01*
G01*
X94129800Y-91820900D02*
G75*
G02*
X94329800Y-92020900I-1J-200001D01*
G01*
X94329800Y-94620900D02*
G75*
G02*
X94129800Y-94820900I-200001J1D01*
G01*
%TO.C,D13*%
X90684000Y-73137400D02*
X90684000Y-75737400D01*
X90884000Y-75937400D02*
X94284000Y-75937400D01*
X94284000Y-72937400D02*
X90884000Y-72937400D01*
X94484000Y-75737400D02*
X94484000Y-73137400D01*
X90684000Y-73137400D02*
G75*
G02*
X90884000Y-72937400I200000J0D01*
G01*
X90884000Y-75937400D02*
G75*
G02*
X90684000Y-75737400I0J200000D01*
G01*
X94284000Y-72937400D02*
G75*
G02*
X94484000Y-73137400I-1J-200001D01*
G01*
X94484000Y-75737400D02*
G75*
G02*
X94284000Y-75937400I-200001J1D01*
G01*
%TO.C,D17*%
X109675300Y-110906400D02*
X109675300Y-113506400D01*
X109875300Y-113706400D02*
X113275300Y-113706400D01*
X113275300Y-110706400D02*
X109875300Y-110706400D01*
X113475300Y-113506400D02*
X113475300Y-110906400D01*
X109675300Y-110906400D02*
G75*
G02*
X109875300Y-110706400I200000J0D01*
G01*
X109875300Y-113706400D02*
G75*
G02*
X109675300Y-113506400I0J200000D01*
G01*
X113275300Y-110706400D02*
G75*
G02*
X113475300Y-110906400I-1J-200001D01*
G01*
X113475300Y-113506400D02*
G75*
G02*
X113275300Y-113706400I-200001J1D01*
G01*
%TO.C,D16*%
X129090300Y-111010500D02*
X129090300Y-113610500D01*
X129290300Y-113810500D02*
X132690300Y-113810500D01*
X132690300Y-110810500D02*
X129290300Y-110810500D01*
X132890300Y-113610500D02*
X132890300Y-111010500D01*
X129090300Y-111010500D02*
G75*
G02*
X129290300Y-110810500I200000J0D01*
G01*
X129290300Y-113810500D02*
G75*
G02*
X129090300Y-113610500I0J200000D01*
G01*
X132690300Y-110810500D02*
G75*
G02*
X132890300Y-111010500I-1J-200001D01*
G01*
X132890300Y-113610500D02*
G75*
G02*
X132690300Y-113810500I-200001J1D01*
G01*
%TO.C,D18*%
X90594300Y-111204300D02*
X90594300Y-113804300D01*
X90794300Y-114004300D02*
X94194300Y-114004300D01*
X94194300Y-111004300D02*
X90794300Y-111004300D01*
X94394300Y-113804300D02*
X94394300Y-111204300D01*
X90594300Y-111204300D02*
G75*
G02*
X90794300Y-111004300I200000J0D01*
G01*
X90794300Y-114004300D02*
G75*
G02*
X90594300Y-113804300I0J200000D01*
G01*
X94194300Y-111004300D02*
G75*
G02*
X94394300Y-111204300I-1J-200001D01*
G01*
X94394300Y-113804300D02*
G75*
G02*
X94194300Y-114004300I-200001J1D01*
G01*
%TO.C,D11*%
X129159100Y-73173900D02*
X129159100Y-75773900D01*
X129359100Y-75973900D02*
X132759100Y-75973900D01*
X132759100Y-72973900D02*
X129359100Y-72973900D01*
X132959100Y-75773900D02*
X132959100Y-73173900D01*
X129159100Y-73173900D02*
G75*
G02*
X129359100Y-72973900I200000J0D01*
G01*
X129359100Y-75973900D02*
G75*
G02*
X129159100Y-75773900I0J200000D01*
G01*
X132759100Y-72973900D02*
G75*
G02*
X132959100Y-73173900I-1J-200001D01*
G01*
X132959100Y-75773900D02*
G75*
G02*
X132759100Y-75973900I-200001J1D01*
G01*
%TD*%
M02*
